{
    "asset" : {
        "generator" : "Khronos glTF Blender I/O v1.8.19",
        "version" : "2.0"
    },
    "scene" : 0,
    "scenes" : [
        {
            "name" : "Scene",
            "nodes" : [
                0
            ]
        }
    ],
    "nodes" : [
        {
            "mesh" : 0,
            "name" : "Fire_Extinguisher"
        }
    ],
    "animations" : [
        {
            "channels" : [
                {
                    "sampler" : 0,
                    "target" : {
                        "node" : 0,
                        "path" : "rotation"
                    }
                }
            ],
            "name" : "Fire_ExtinguisherAction",
            "samplers" : [
                {
                    "input" : 4,
                    "interpolation" : "LINEAR",
                    "output" : 5
                }
            ]
        }
    ],
    "materials" : [
        {
            "doubleSided" : true,
            "name" : "Material",
            "pbrMetallicRoughness" : {}
        }
    ],
    "meshes" : [
        {
            "name" : "Fire_Extinguisher",
            "primitives" : [
                {
                    "attributes" : {
                        "POSITION" : 0,
                        "NORMAL" : 1,
                        "TEXCOORD_0" : 2
                    },
                    "indices" : 3,
                    "material" : 0
                }
            ]
        }
    ],
    "accessors" : [
        {
            "bufferView" : 0,
            "componentType" : 5126,
            "count" : 1853,
            "max" : [
                0.8775990009307861,
                4.429667949676514,
                1.6796112060546875
            ],
            "min" : [
                -0.8324199914932251,
                -1.4615411758422852,
                -1.1782252788543701
            ],
            "type" : "VEC3"
        },
        {
            "bufferView" : 1,
            "componentType" : 5126,
            "count" : 1853,
            "type" : "VEC3"
        },
        {
            "bufferView" : 2,
            "componentType" : 5126,
            "count" : 1853,
            "type" : "VEC2"
        },
        {
            "bufferView" : 3,
            "componentType" : 5123,
            "count" : 4440,
            "type" : "SCALAR"
        },
        {
            "bufferView" : 4,
            "componentType" : 5126,
            "count" : 91,
            "max" : [
                3.7916666666666665
            ],
            "min" : [
                0.041666666666666664
            ],
            "type" : "SCALAR"
        },
        {
            "bufferView" : 5,
            "componentType" : 5126,
            "count" : 91,
            "type" : "VEC4"
        }
    ],
    "bufferViews" : [
        {
            "buffer" : 0,
            "byteLength" : 22236,
            "byteOffset" : 0
        },
        {
            "buffer" : 0,
            "byteLength" : 22236,
            "byteOffset" : 22236
        },
        {
            "buffer" : 0,
            "byteLength" : 14824,
            "byteOffset" : 44472
        },
        {
            "buffer" : 0,
            "byteLength" : 8880,
            "byteOffset" : 59296
        },
        {
            "buffer" : 0,
            "byteLength" : 364,
            "byteOffset" : 68176
        },
        {
            "buffer" : 0,
            "byteLength" : 1456,
            "byteOffset" : 68540
        }
    ],
    "buffers" : [
        {
            "byteLength" : 69996,
            "uri" : "Fire_Extinguisher_001.bin"
        }
    ]
}
