{
    "asset" : {
        "generator" : "Khronos glTF Blender I/O v1.8.19",
        "version" : "2.0"
    },
    "scene" : 0,
    "scenes" : [
        {
            "name" : "Scene",
            "nodes" : [
                4
            ]
        }
    ],
    "nodes" : [
        {
            "mesh" : 0,
            "name" : "Exctincteur_Low__0"
        },
        {
            "children" : [
                0
            ],
            "name" : "Exctincteur_Low",
            "rotation" : [
                -0.7071068286895752,
                0,
                0,
                0.7071067094802856
            ],
            "scale" : [
                100,
                100,
                100
            ]
        },
        {
            "children" : [
                1
            ],
            "name" : "RootNode"
        },
        {
            "children" : [
                2
            ],
            "name" : "33f44b31ab254fa083f8a47a07efdbd1.fbx",
            "rotation" : [
                0.7071068286895752,
                0,
                0,
                0.7071068286895752
            ]
        },
        {
            "children" : [
                3
            ],
            "name" : "Sketchfab_model",
            "rotation" : [
                -0.7071068286895752,
                0,
                0,
                0.7071068286895752
            ]
        }
    ],
    "materials" : [
        {
            "doubleSided" : true,
            "name" : "Scene_-_Root",
            "normalTexture" : {
                "index" : 0
            },
            "occlusionTexture" : {
                "index" : 1
            },
            "pbrMetallicRoughness" : {
                "baseColorFactor" : [
                    0.5,
                    0,
                    0.004296948201954365,
                    1
                ],
                "metallicRoughnessTexture" : {
                    "index" : 1
                }
            }
        }
    ],
    "meshes" : [
        {
            "name" : "Exctincteur_Low__0",
            "primitives" : [
                {
                    "attributes" : {
                        "POSITION" : 0,
                        "NORMAL" : 1,
                        "TEXCOORD_0" : 2
                    },
                    "indices" : 3,
                    "material" : 0
                }
            ]
        }
    ],
    "textures" : [
        {
            "sampler" : 0,
            "source" : 0
        },
        {
            "sampler" : 0,
            "source" : 1
        }
    ],
    "images" : [
        {
            "mimeType" : "image/png",
            "name" : "Scene_-_Root_normal",
            "uri" : "Scene_-_Root_normal.png"
        },
        {
            "mimeType" : "image/png",
            "name" : "Scene_-_Root_metallicRoughness",
            "uri" : "Scene_-_Root_metallicRoughness.png"
        }
    ],
    "accessors" : [
        {
            "bufferView" : 0,
            "componentType" : 5126,
            "count" : 4933,
            "max" : [
                0.8455395698547363,
                0.6728605031967163,
                2.0767431259155273
            ],
            "min" : [
                -1.3444740772247314,
                -0.6728605031967163,
                -2.818178176879883
            ],
            "type" : "VEC3"
        },
        {
            "bufferView" : 1,
            "componentType" : 5126,
            "count" : 4933,
            "type" : "VEC3"
        },
        {
            "bufferView" : 2,
            "componentType" : 5126,
            "count" : 4933,
            "type" : "VEC2"
        },
        {
            "bufferView" : 3,
            "componentType" : 5123,
            "count" : 13692,
            "type" : "SCALAR"
        }
    ],
    "bufferViews" : [
        {
            "buffer" : 0,
            "byteLength" : 59196,
            "byteOffset" : 0
        },
        {
            "buffer" : 0,
            "byteLength" : 59196,
            "byteOffset" : 59196
        },
        {
            "buffer" : 0,
            "byteLength" : 39464,
            "byteOffset" : 118392
        },
        {
            "buffer" : 0,
            "byteLength" : 27384,
            "byteOffset" : 157856
        }
    ],
    "samplers" : [
        {
            "magFilter" : 9729,
            "minFilter" : 9987
        }
    ],
    "buffers" : [
        {
            "byteLength" : 185240,
            "uri" : "untitled.bin"
        }
    ]
}
